<svg width="97" height="12" viewBox="0 0 97 12" fill="none" xmlns="http://www.w3.org/2000/svg">
<path d="M1.29686 8.87988C1.17686 8.87988 1.11686 8.83588 1.11686 8.74788C1.11686 8.65988 1.16886 8.61188 1.27286 8.60388L1.81286 8.51988C1.97286 8.49588 2.08086 8.45588 2.13686 8.39988C2.19286 8.33588 2.22086 8.21988 2.22086 8.05188V0.851882C2.22086 0.739882 2.19686 0.659883 2.14886 0.611883C2.10086 0.563882 2.00086 0.539882 1.84886 0.539882C1.55286 0.539882 1.26086 0.667882 0.972859 0.923882C0.684859 1.17988 0.496859 1.59188 0.408859 2.15988L0.348859 2.55588C0.332859 2.65988 0.276859 2.71188 0.180859 2.71188C0.0608594 2.71188 0.00885938 2.64388 0.0248594 2.50788L0.132859 0.335883C0.148859 0.151883 0.220859 0.0598826 0.348859 0.0598826C0.404859 0.0598826 0.456859 0.0758827 0.504859 0.107883C0.552859 0.131882 0.632859 0.159882 0.744859 0.191882C0.864859 0.223882 1.05286 0.239882 1.30886 0.239882H3.98486C4.24086 0.239882 4.42486 0.223882 4.53686 0.191882C4.65686 0.159882 4.74086 0.131882 4.78886 0.107883C4.84486 0.0758827 4.89686 0.0598826 4.94486 0.0598826C5.07286 0.0598826 5.14486 0.151883 5.16086 0.335883L5.26886 2.50788C5.28486 2.64388 5.23286 2.71188 5.11286 2.71188C5.01686 2.71188 4.96086 2.65988 4.94486 2.55588L4.88486 2.15988C4.80486 1.59188 4.62086 1.17988 4.33286 0.923882C4.04486 0.667882 3.74886 0.539882 3.44486 0.539882C3.29286 0.539882 3.19286 0.563882 3.14486 0.611883C3.09686 0.659883 3.07286 0.739882 3.07286 0.851882V8.05188C3.07286 8.21988 3.10086 8.33588 3.15686 8.39988C3.22086 8.45588 3.32886 8.49588 3.48086 8.51988L4.02086 8.60388C4.12486 8.61188 4.17686 8.65988 4.17686 8.74788C4.17686 8.83588 4.11686 8.87988 3.99686 8.87988H1.29686ZM5.82011 8.87988C5.70011 8.87988 5.64011 8.83588 5.64011 8.74788C5.64011 8.67588 5.69211 8.62788 5.79611 8.60388L6.07211 8.55588C6.24011 8.52388 6.34811 8.47988 6.39611 8.42388C6.45211 8.36788 6.48011 8.25588 6.48011 8.08788V1.03188C6.48011 0.863883 6.45211 0.751883 6.39611 0.695882C6.34811 0.639883 6.24011 0.595883 6.07211 0.563883L5.79611 0.515882C5.69211 0.491882 5.64011 0.443882 5.64011 0.371882C5.64011 0.283882 5.70011 0.239882 5.82011 0.239882H9.85211C10.0361 0.239882 10.1361 0.331882 10.1521 0.515882L10.2481 2.50788C10.2641 2.64388 10.2121 2.71188 10.0921 2.71188C9.99611 2.71188 9.94011 2.65988 9.92411 2.55588L9.85211 2.11188C9.76411 1.56788 9.58411 1.17188 9.31211 0.923882C9.04011 0.667882 8.66411 0.539882 8.18411 0.539882C7.86411 0.539882 7.64011 0.587882 7.51211 0.683882C7.39211 0.771882 7.33211 0.931882 7.33211 1.16388V4.05588C7.33211 4.16788 7.38811 4.22388 7.50011 4.22388H8.10011C8.45211 4.22388 8.66811 4.03588 8.74811 3.65988L8.86811 3.05988C8.90011 2.93988 8.96811 2.88788 9.07211 2.90388C9.16011 2.91988 9.20411 2.98788 9.20411 3.10788V5.80788C9.20411 5.92788 9.16011 5.99588 9.07211 6.01188C8.96811 6.02788 8.90011 5.97588 8.86811 5.85588L8.74811 5.26788C8.69211 4.98788 8.61211 4.80388 8.50811 4.71588C8.41211 4.62788 8.27211 4.58388 8.08811 4.58388H7.50011C7.38811 4.58388 7.33211 4.63988 7.33211 4.75188V7.76388C7.33211 8.05188 7.40411 8.25988 7.54811 8.38788C7.70011 8.51588 7.97211 8.57988 8.36411 8.57988C8.76411 8.57988 9.10411 8.47988 9.38411 8.27988C9.67211 8.07188 9.87211 7.68788 9.98411 7.12788L10.1281 6.41988C10.1521 6.31588 10.2121 6.26388 10.3081 6.26388C10.4201 6.26388 10.4681 6.33188 10.4521 6.46788L10.3321 8.60388C10.3161 8.78788 10.2161 8.87988 10.0321 8.87988H5.82011ZM11.2576 8.87988C11.1376 8.87988 11.0776 8.83588 11.0776 8.74788C11.0776 8.67588 11.1296 8.62788 11.2336 8.60388L11.5096 8.55588C11.6776 8.52388 11.7856 8.47988 11.8336 8.42388C11.8896 8.36788 11.9176 8.25588 11.9176 8.08788V1.03188C11.9176 0.863883 11.8896 0.751883 11.8336 0.695882C11.7856 0.639883 11.6776 0.595883 11.5096 0.563883L11.2336 0.515882C11.1296 0.491882 11.0776 0.443882 11.0776 0.371882C11.0776 0.283882 11.1376 0.239882 11.2576 0.239882H15.2896C15.4736 0.239882 15.5736 0.331882 15.5896 0.515882L15.6856 2.50788C15.7016 2.64388 15.6496 2.71188 15.5296 2.71188C15.4336 2.71188 15.3776 2.65988 15.3616 2.55588L15.2896 2.11188C15.2016 1.56788 15.0216 1.17188 14.7496 0.923882C14.4776 0.667882 14.1016 0.539882 13.6216 0.539882C13.3016 0.539882 13.0776 0.587882 12.9496 0.683882C12.8296 0.771882 12.7696 0.931882 12.7696 1.16388V4.05588C12.7696 4.16788 12.8256 4.22388 12.9376 4.22388H13.5376C13.8896 4.22388 14.1056 4.03588 14.1856 3.65988L14.3056 3.05988C14.3376 2.93988 14.4056 2.88788 14.5096 2.90388C14.5976 2.91988 14.6416 2.98788 14.6416 3.10788V5.80788C14.6416 5.92788 14.5976 5.99588 14.5096 6.01188C14.4056 6.02788 14.3376 5.97588 14.3056 5.85588L14.1856 5.26788C14.1296 4.98788 14.0496 4.80388 13.9456 4.71588C13.8496 4.62788 13.7096 4.58388 13.5256 4.58388H12.9376C12.8256 4.58388 12.7696 4.63988 12.7696 4.75188V7.76388C12.7696 8.05188 12.8416 8.25988 12.9856 8.38788C13.1376 8.51588 13.4096 8.57988 13.8016 8.57988C14.2016 8.57988 14.5416 8.47988 14.8216 8.27988C15.1096 8.07188 15.3096 7.68788 15.4216 7.12788L15.5656 6.41988C15.5896 6.31588 15.6496 6.26388 15.7456 6.26388C15.8576 6.26388 15.9056 6.33188 15.8896 6.46788L15.7696 8.60388C15.7536 8.78788 15.6536 8.87988 15.4696 8.87988H11.2576ZM20.5342 8.98788C20.3742 8.98788 20.1942 8.97188 19.9942 8.93988C19.8022 8.90788 19.6182 8.86788 19.4422 8.81988C19.2742 8.77188 19.1422 8.71988 19.0462 8.66388C18.9902 8.63188 18.9462 8.59988 18.9142 8.56788C18.8902 8.52788 18.8782 8.46388 18.8782 8.37588L18.8182 6.49188C18.8182 6.33188 18.8702 6.25188 18.9742 6.25188C19.0622 6.25188 19.1222 6.32388 19.1542 6.46788L19.2622 6.92388C19.5342 8.06788 20.0422 8.63988 20.7862 8.63988C21.1862 8.63988 21.5022 8.50788 21.7342 8.24388C21.9742 7.97188 22.0942 7.59188 22.0942 7.10388C22.0942 6.63188 21.9702 6.19188 21.7222 5.78388C21.4822 5.37588 21.0942 4.97188 20.5582 4.57188C19.9662 4.14788 19.5342 3.73988 19.2622 3.34788C18.9902 2.94788 18.8542 2.52388 18.8542 2.07588C18.8542 1.48388 19.0582 1.01188 19.4662 0.659882C19.8822 0.299882 20.4102 0.119883 21.0502 0.119883C21.2902 0.119883 21.5222 0.147882 21.7462 0.203882C21.9702 0.259882 22.1542 0.339883 22.2982 0.443883C22.3462 0.475882 22.3822 0.511882 22.4062 0.551883C22.4382 0.591883 22.4542 0.643883 22.4542 0.707882L22.4902 2.51988C22.4902 2.65588 22.4382 2.72388 22.3342 2.72388C22.2622 2.72388 22.2102 2.66788 22.1782 2.55588L22.0942 2.25588C21.9182 1.63988 21.7342 1.19188 21.5422 0.911882C21.3582 0.623882 21.0902 0.479882 20.7382 0.479882C20.3942 0.479882 20.1182 0.591882 19.9102 0.815882C19.7102 1.03988 19.6102 1.35588 19.6102 1.76388C19.6102 2.10788 19.7222 2.43588 19.9462 2.74788C20.1702 3.05988 20.5622 3.43988 21.1222 3.88788C21.7222 4.37588 22.1582 4.84788 22.4302 5.30388C22.7102 5.75188 22.8502 6.23188 22.8502 6.74388C22.8502 7.19188 22.7502 7.58388 22.5502 7.91988C22.3502 8.25588 22.0742 8.51988 21.7222 8.71188C21.3782 8.89588 20.9822 8.98788 20.5342 8.98788ZM25.5169 8.98788C25.1329 8.98788 24.7889 8.85988 24.4849 8.60388C24.1809 8.34788 23.9369 7.98788 23.7529 7.52388C23.5769 7.05188 23.4889 6.50788 23.4889 5.89188C23.4889 5.25988 23.5809 4.70388 23.7649 4.22388C23.9489 3.74388 24.2009 3.36788 24.5209 3.09588C24.8409 2.82388 25.1969 2.68788 25.5889 2.68788C26.0609 2.68788 26.4409 2.88388 26.7289 3.27588C27.0249 3.65988 27.1729 4.28788 27.1729 5.15988C27.1729 5.42388 27.0729 5.55588 26.8729 5.55588H24.5929C24.4329 5.55588 24.3529 5.64788 24.3529 5.83188C24.3529 6.67988 24.4769 7.31588 24.7249 7.73988C24.9729 8.16388 25.2889 8.37588 25.6729 8.37588C25.9769 8.37588 26.2249 8.26788 26.4169 8.05188C26.6089 7.83588 26.7649 7.47188 26.8849 6.95988C26.9089 6.87188 26.9609 6.82788 27.0409 6.82788C27.1369 6.82788 27.1729 6.90788 27.1489 7.06788C27.0209 7.77988 26.8169 8.27988 26.5369 8.56788C26.2569 8.84788 25.9169 8.98788 25.5169 8.98788ZM24.5569 5.25588H25.7689C26.1529 5.25588 26.3449 5.05588 26.3449 4.65588C26.3449 4.13588 26.2809 3.72788 26.1529 3.43188C26.0249 3.13588 25.8329 2.98788 25.5769 2.98788C25.2649 2.98788 25.0009 3.16788 24.7849 3.52788C24.5769 3.88788 24.4409 4.39988 24.3769 5.06388C24.3609 5.19188 24.4209 5.25588 24.5569 5.25588ZM29.6385 8.98788C29.2865 8.98788 28.9665 8.87188 28.6785 8.63988C28.3985 8.39988 28.1745 8.05988 28.0065 7.61988C27.8385 7.17988 27.7545 6.65588 27.7545 6.04788C27.7545 5.36788 27.8545 4.77588 28.0545 4.27188C28.2625 3.76788 28.5425 3.37988 28.8945 3.10788C29.2465 2.82788 29.6385 2.68788 30.0705 2.68788C30.4385 2.68788 30.7265 2.75988 30.9345 2.90388C31.0145 2.95988 31.0545 3.04788 31.0545 3.16788L31.0785 4.63188C31.0785 4.75188 31.0305 4.81188 30.9345 4.81188C30.8465 4.81188 30.7905 4.75988 30.7665 4.65588C30.6545 4.21588 30.5465 3.87588 30.4425 3.63588C30.3385 3.39588 30.2305 3.23188 30.1185 3.14388C30.0065 3.04788 29.8825 2.99988 29.7465 2.99988C29.5865 2.99988 29.4185 3.09188 29.2425 3.27588C29.0745 3.45988 28.9305 3.75988 28.8105 4.17588C28.6985 4.58388 28.6425 5.12388 28.6425 5.79588C28.6425 6.65188 28.7505 7.29588 28.9665 7.72788C29.1905 8.15988 29.4785 8.37588 29.8305 8.37588C30.1105 8.37588 30.3425 8.25988 30.5265 8.02788C30.7185 7.79588 30.8825 7.37588 31.0185 6.76788C31.0425 6.67988 31.0905 6.63588 31.1625 6.63588C31.2585 6.63588 31.2945 6.71588 31.2705 6.87588C31.1825 7.43588 31.0585 7.87188 30.8985 8.18388C30.7465 8.48788 30.5625 8.69988 30.3465 8.81988C30.1385 8.93188 29.9025 8.98788 29.6385 8.98788ZM33.5969 8.98788C33.3969 8.98788 33.2049 8.94388 33.0209 8.85588C32.8369 8.76788 32.6849 8.62788 32.5649 8.43588C32.4449 8.24388 32.3849 7.98788 32.3849 7.66788V3.49188C32.3849 3.34788 32.3609 3.24788 32.3129 3.19188C32.2729 3.13588 32.1969 3.10388 32.0849 3.09588L31.8809 3.07188C31.7449 3.05588 31.6769 3.00388 31.6769 2.91588C31.6769 2.81188 31.7529 2.75988 31.9049 2.75988H33.0209C33.1409 2.75988 33.2009 2.81988 33.2009 2.93988V7.41588C33.2009 7.78388 33.2689 8.04788 33.4049 8.20788C33.5489 8.35988 33.7449 8.43588 33.9929 8.43588C34.2409 8.43588 34.4609 8.36788 34.6529 8.23188C34.8449 8.08788 34.9969 7.89988 35.1089 7.66788C35.2289 7.42788 35.2889 7.16788 35.2889 6.88788V3.49188C35.2889 3.34788 35.2649 3.24788 35.2169 3.19188C35.1769 3.13588 35.1009 3.10388 34.9889 3.09588L34.7849 3.07188C34.6489 3.05588 34.5809 3.00388 34.5809 2.91588C34.5809 2.81188 34.6569 2.75988 34.8089 2.75988H35.9249C36.0449 2.75988 36.1049 2.81988 36.1049 2.93988V7.59588C36.1049 7.73988 36.1249 7.83988 36.1649 7.89588C36.2129 7.94388 36.2929 7.97588 36.4049 7.99188L36.6569 8.02788C36.7609 8.03588 36.8129 8.07588 36.8129 8.14788C36.8129 8.21988 36.7489 8.26788 36.6209 8.29188C36.3729 8.32388 36.1729 8.38788 36.0209 8.48388C35.8769 8.57988 35.7489 8.69588 35.6369 8.83188C35.5649 8.90388 35.5049 8.93988 35.4569 8.93988C35.3849 8.93988 35.3489 8.89188 35.3489 8.79588V8.24388C35.3489 8.17988 35.3249 8.14388 35.2769 8.13588C35.2369 8.11988 35.1929 8.13588 35.1449 8.18388C34.8489 8.47988 34.5849 8.68788 34.3529 8.80788C34.1289 8.92788 33.8769 8.98788 33.5969 8.98788ZM38.8421 3.52788C39.1701 2.96788 39.5661 2.68788 40.0301 2.68788C40.2941 2.68788 40.4901 2.76788 40.6181 2.92788C40.7461 3.07988 40.8101 3.25188 40.8101 3.44388C40.8101 3.59588 40.7701 3.71988 40.6901 3.81588C40.6181 3.91188 40.5021 3.95988 40.3421 3.95988C40.2141 3.95988 40.1181 3.93188 40.0541 3.87588C39.9981 3.81188 39.9501 3.73988 39.9101 3.65988C39.8781 3.57988 39.8381 3.51188 39.7901 3.45588C39.7421 3.39188 39.6621 3.35988 39.5501 3.35988C39.4061 3.35988 39.2701 3.44788 39.1421 3.62388C39.0141 3.79188 38.9061 4.01988 38.8181 4.30788C38.7381 4.59588 38.6981 4.92388 38.6981 5.29188V8.07588C38.6981 8.24388 38.7221 8.36388 38.7701 8.43588C38.8261 8.50788 38.9381 8.55188 39.1061 8.56788L39.4301 8.60388C39.5181 8.61988 39.5621 8.66388 39.5621 8.73588C39.5621 8.83188 39.5021 8.87988 39.3821 8.87988H37.3541C37.2341 8.87988 37.1741 8.83588 37.1741 8.74788C37.1741 8.67588 37.2261 8.62788 37.3301 8.60388L37.4741 8.57988C37.6421 8.54788 37.7501 8.49988 37.7981 8.43588C37.8541 8.36388 37.8821 8.24388 37.8821 8.07588V4.04388C37.8821 3.89988 37.8581 3.80388 37.8101 3.75588C37.7701 3.69988 37.6941 3.66388 37.5821 3.64788L37.3301 3.61188C37.2261 3.60388 37.1741 3.55988 37.1741 3.47988C37.1741 3.41588 37.2381 3.37188 37.3661 3.34788C37.6141 3.30788 37.8021 3.24388 37.9301 3.15588C38.0661 3.06788 38.2061 2.95988 38.3501 2.83188C38.4221 2.75988 38.4821 2.72388 38.5301 2.72388C38.6021 2.72388 38.6381 2.77188 38.6381 2.86788V3.51588C38.6381 3.57188 38.6621 3.60788 38.7101 3.62388C38.7581 3.63188 38.8021 3.59988 38.8421 3.52788ZM42.1825 1.61988C42.0145 1.61988 41.8705 1.55988 41.7505 1.43988C41.6385 1.31988 41.5825 1.16788 41.5825 0.983882C41.5825 0.799882 41.6385 0.651882 41.7505 0.539882C41.8705 0.419882 42.0145 0.359882 42.1825 0.359882C42.3505 0.359882 42.4905 0.419882 42.6025 0.539882C42.7145 0.651882 42.7705 0.799882 42.7705 0.983882C42.7705 1.16788 42.7145 1.31988 42.6025 1.43988C42.4905 1.55988 42.3505 1.61988 42.1825 1.61988ZM41.1745 8.87988C41.0545 8.87988 40.9945 8.83588 40.9945 8.74788C40.9945 8.67588 41.0465 8.62788 41.1505 8.60388L41.2945 8.57988C41.4945 8.54788 41.6225 8.49988 41.6785 8.43588C41.7345 8.36388 41.7625 8.24388 41.7625 8.07588V4.04388C41.7625 3.89988 41.7385 3.80388 41.6905 3.75588C41.6505 3.69988 41.5745 3.66388 41.4625 3.64788L41.2105 3.61188C41.1065 3.60388 41.0545 3.55988 41.0545 3.47988C41.0545 3.41588 41.1185 3.37188 41.2465 3.34788C41.4945 3.30788 41.6945 3.24388 41.8465 3.15588C41.9985 3.06788 42.1465 2.95988 42.2905 2.83188C42.3625 2.75988 42.4225 2.72388 42.4705 2.72388C42.5425 2.72388 42.5785 2.77188 42.5785 2.86788V8.07588C42.5785 8.24388 42.6025 8.36388 42.6505 8.43588C42.6985 8.50788 42.7905 8.55188 42.9265 8.56788L43.2265 8.60388C43.3145 8.61988 43.3585 8.66388 43.3585 8.73588C43.3585 8.83188 43.2985 8.87988 43.1785 8.87988H41.1745ZM45.2503 8.98788C44.9703 8.98788 44.7383 8.89188 44.5543 8.69988C44.3783 8.49988 44.2903 8.17588 44.2903 7.72788V3.23988C44.2903 3.14388 44.2423 3.09588 44.1463 3.09588H43.7983C43.6703 3.09588 43.6063 3.04788 43.6063 2.95188C43.6063 2.88788 43.6423 2.83188 43.7143 2.78388C43.9783 2.59988 44.1903 2.40388 44.3503 2.19588C44.5103 1.97988 44.6503 1.68788 44.7703 1.31988C44.8263 1.15188 44.8943 1.06788 44.9743 1.06788C45.0623 1.06788 45.1063 1.13188 45.1063 1.25988V2.59188C45.1063 2.70388 45.1623 2.75988 45.2743 2.75988H46.0543C46.1823 2.75988 46.2463 2.81588 46.2463 2.92788C46.2463 3.03988 46.1823 3.09588 46.0543 3.09588H45.2743C45.1623 3.09588 45.1063 3.15188 45.1063 3.26388V7.73988C45.1063 7.91588 45.1343 8.05588 45.1903 8.15988C45.2463 8.25588 45.3503 8.30388 45.5023 8.30388C45.6703 8.30388 45.8063 8.21988 45.9103 8.05188C46.0223 7.88388 46.0943 7.61188 46.1263 7.23588C46.1423 7.12388 46.1943 7.06788 46.2823 7.06788C46.3783 7.06788 46.4263 7.12788 46.4263 7.24788C46.4023 7.86388 46.2743 8.30788 46.0423 8.57988C45.8183 8.85188 45.5543 8.98788 45.2503 8.98788ZM47.3534 11.3399C47.1374 11.3399 46.9654 11.2639 46.8374 11.1119C46.7094 10.9679 46.6454 10.7999 46.6454 10.6079C46.6454 10.4559 46.6894 10.3279 46.7774 10.2239C46.8654 10.1199 46.9854 10.0679 47.1374 10.0679C47.2654 10.0679 47.3574 10.0959 47.4134 10.1519C47.4694 10.2079 47.5094 10.2719 47.5334 10.3439C47.5574 10.4159 47.5814 10.4799 47.6054 10.5359C47.6294 10.5919 47.6774 10.6199 47.7494 10.6199C47.8374 10.6199 47.9174 10.5559 47.9894 10.4279C48.0614 10.3079 48.1614 10.0479 48.2894 9.64788C48.3694 9.40788 48.4174 9.19988 48.4334 9.02388C48.4574 8.84788 48.4534 8.65988 48.4214 8.45988C48.3974 8.25988 48.3374 8.01588 48.2414 7.72788L46.9334 3.56388C46.8774 3.37188 46.8214 3.24788 46.7654 3.19188C46.7174 3.13588 46.6374 3.09588 46.5254 3.07188L46.3454 3.03588C46.2414 3.01188 46.1894 2.95988 46.1894 2.87988C46.1894 2.79988 46.2454 2.75988 46.3574 2.75988H48.3374C48.4494 2.75988 48.5054 2.79988 48.5054 2.87988C48.5054 2.96788 48.4534 3.01988 48.3494 3.03588L48.1574 3.05988C47.9654 3.08388 47.8414 3.13188 47.7854 3.20388C47.7374 3.26788 47.7414 3.38788 47.7974 3.56388L48.8534 7.07988C48.8774 7.15988 48.9134 7.19988 48.9614 7.19988C49.0174 7.19988 49.0574 7.15988 49.0814 7.07988L50.1014 3.77988C50.1654 3.56388 50.1814 3.40388 50.1494 3.29988C50.1254 3.18788 50.0134 3.11588 49.8134 3.08388L49.5614 3.03588C49.4574 3.01188 49.4054 2.95988 49.4054 2.87988C49.4054 2.79988 49.4614 2.75988 49.5734 2.75988H51.0974C51.2094 2.75988 51.2654 2.80388 51.2654 2.89188C51.2654 2.97188 51.2174 3.02788 51.1214 3.05988L51.0134 3.09588C50.8934 3.13588 50.7934 3.20788 50.7134 3.31188C50.6334 3.41588 50.5494 3.59588 50.4614 3.85188L48.6734 9.43188C48.4974 9.99188 48.3374 10.4079 48.1934 10.6799C48.0574 10.9519 47.9254 11.1279 47.7974 11.2079C47.6694 11.2959 47.5214 11.3399 47.3534 11.3399ZM53.6209 8.87988C53.5009 8.87988 53.4409 8.83588 53.4409 8.74788C53.4409 8.67588 53.4929 8.62788 53.5969 8.60388L53.8729 8.55588C54.0409 8.52388 54.1489 8.47988 54.1969 8.42388C54.2529 8.36788 54.2809 8.25588 54.2809 8.08788V1.03188C54.2809 0.863883 54.2529 0.751883 54.1969 0.695882C54.1489 0.639883 54.0409 0.595883 53.8729 0.563883L53.5969 0.515882C53.4929 0.491882 53.4409 0.443882 53.4409 0.371882C53.4409 0.283882 53.5009 0.239882 53.6209 0.239882H55.8169C55.9369 0.239882 55.9969 0.287883 55.9969 0.383883C55.9969 0.455882 55.9529 0.499882 55.8649 0.515882L55.5409 0.563883C55.3729 0.587882 55.2609 0.631882 55.2049 0.695882C55.1569 0.759882 55.1329 0.875882 55.1329 1.04388V4.05588C55.1329 4.16788 55.1889 4.22388 55.3009 4.22388H57.6769C57.7889 4.22388 57.8449 4.16788 57.8449 4.05588V1.04388C57.8449 0.875882 57.8169 0.759882 57.7609 0.695882C57.7129 0.631882 57.6049 0.587882 57.4369 0.563883L57.1129 0.515882C57.0249 0.499882 56.9809 0.455882 56.9809 0.383883C56.9809 0.287883 57.0409 0.239882 57.1609 0.239882H59.3569C59.4769 0.239882 59.5369 0.283882 59.5369 0.371882C59.5369 0.443882 59.4849 0.491882 59.3809 0.515882L59.1049 0.563883C58.9369 0.595883 58.8249 0.639883 58.7689 0.695882C58.7209 0.751883 58.6969 0.863883 58.6969 1.03188V8.08788C58.6969 8.25588 58.7209 8.36788 58.7689 8.42388C58.8249 8.47988 58.9369 8.52388 59.1049 8.55588L59.3809 8.60388C59.4849 8.62788 59.5369 8.67588 59.5369 8.74788C59.5369 8.83588 59.4769 8.87988 59.3569 8.87988H57.1609C57.0409 8.87988 56.9809 8.83188 56.9809 8.73588C56.9809 8.66388 57.0249 8.61988 57.1129 8.60388L57.4369 8.55588C57.6049 8.53188 57.7129 8.48788 57.7609 8.42388C57.8169 8.35988 57.8449 8.24388 57.8449 8.07588V4.75188C57.8449 4.63988 57.7889 4.58388 57.6769 4.58388H55.3009C55.1889 4.58388 55.1329 4.63988 55.1329 4.75188V8.07588C55.1329 8.24388 55.1569 8.35988 55.2049 8.42388C55.2609 8.48788 55.3729 8.53188 55.5409 8.55588L55.8649 8.60388C55.9529 8.61988 55.9969 8.66388 55.9969 8.73588C55.9969 8.83188 55.9369 8.87988 55.8169 8.87988H53.6209ZM61.063 8.98788C60.727 8.98788 60.451 8.88388 60.235 8.67588C60.019 8.45988 59.911 8.17588 59.911 7.82388C59.911 7.47988 60.019 7.15588 60.235 6.85188C60.451 6.53988 60.747 6.25988 61.123 6.01188C61.499 5.76388 61.927 5.56388 62.407 5.41188C62.511 5.37988 62.563 5.31188 62.563 5.20788V4.11588C62.563 3.73188 62.503 3.45988 62.383 3.29988C62.263 3.13188 62.099 3.04788 61.891 3.04788C61.691 3.04788 61.507 3.13988 61.339 3.32388C61.179 3.49988 61.063 3.79988 60.991 4.22388C60.951 4.47988 60.863 4.66788 60.727 4.78788C60.599 4.89988 60.467 4.95588 60.331 4.95588C60.107 4.95588 59.995 4.84388 59.995 4.61988C59.995 4.38788 60.059 4.15988 60.187 3.93588C60.323 3.70388 60.499 3.49588 60.715 3.31188C60.931 3.11988 61.167 2.96788 61.423 2.85588C61.679 2.74388 61.935 2.68788 62.191 2.68788C62.983 2.68788 63.379 3.14788 63.379 4.06788V7.73988C63.379 8.07588 63.463 8.24388 63.631 8.24388C63.735 8.24388 63.831 8.17588 63.919 8.03988C64.007 7.89588 64.051 7.65588 64.051 7.31988C64.051 7.19188 64.103 7.12788 64.207 7.12788C64.303 7.12788 64.351 7.19588 64.351 7.33188C64.351 7.91588 64.247 8.33988 64.039 8.60388C63.839 8.85988 63.611 8.98788 63.355 8.98788C63.163 8.98788 63.011 8.91188 62.899 8.75988C62.787 8.59988 62.711 8.41188 62.671 8.19588C62.663 8.11588 62.627 8.07588 62.563 8.07588C62.507 8.06788 62.451 8.10388 62.395 8.18388C62.203 8.44788 62.007 8.64788 61.807 8.78388C61.607 8.91988 61.359 8.98788 61.063 8.98788ZM61.387 8.43588C61.595 8.43588 61.787 8.36388 61.963 8.21988C62.139 8.06788 62.283 7.86788 62.395 7.61988C62.507 7.37188 62.563 7.09188 62.563 6.77988V5.90388C62.563 5.75188 62.479 5.70788 62.311 5.77188C61.823 5.94788 61.443 6.19188 61.171 6.50388C60.907 6.80788 60.775 7.17588 60.775 7.60788C60.775 8.15988 60.979 8.43588 61.387 8.43588ZM64.776 8.87988C64.656 8.87988 64.596 8.83588 64.596 8.74788C64.596 8.67588 64.648 8.62788 64.752 8.60388L64.896 8.57988C65.064 8.54788 65.172 8.49988 65.22 8.43588C65.276 8.36388 65.304 8.24388 65.304 8.07588V4.04388C65.304 3.89988 65.28 3.80388 65.232 3.75588C65.192 3.69988 65.116 3.66388 65.004 3.64788L64.752 3.61188C64.648 3.60388 64.596 3.55988 64.596 3.47988C64.596 3.41588 64.66 3.37188 64.788 3.34788C65.036 3.30788 65.224 3.24388 65.352 3.15588C65.488 3.06788 65.628 2.95988 65.772 2.83188C65.844 2.75988 65.904 2.72388 65.952 2.72388C66.024 2.72388 66.06 2.77188 66.06 2.86788V3.40788C66.06 3.47988 66.084 3.52788 66.132 3.55188C66.188 3.56788 66.248 3.54388 66.312 3.47988C66.632 3.17588 66.912 2.96788 67.152 2.85588C67.4 2.74388 67.66 2.68788 67.932 2.68788C68.292 2.68788 68.58 2.81588 68.796 3.07188C69.012 3.31988 69.12 3.68788 69.12 4.17588V8.07588C69.12 8.24388 69.144 8.36388 69.192 8.43588C69.248 8.49988 69.36 8.54388 69.528 8.56788L69.792 8.60388C69.88 8.61988 69.924 8.66788 69.924 8.74788C69.924 8.83588 69.876 8.87988 69.78 8.87988H67.764C67.652 8.87988 67.596 8.83588 67.596 8.74788C67.596 8.66788 67.64 8.61988 67.728 8.60388L67.896 8.57988C68.064 8.55588 68.172 8.50788 68.22 8.43588C68.276 8.36388 68.304 8.24388 68.304 8.07588V4.30788C68.304 3.91588 68.232 3.63988 68.088 3.47988C67.944 3.31988 67.74 3.23988 67.476 3.23988C67.22 3.23988 66.988 3.31588 66.78 3.46788C66.58 3.61188 66.42 3.80788 66.3 4.05588C66.18 4.29588 66.12 4.56388 66.12 4.85988V8.07588C66.12 8.24388 66.144 8.36388 66.192 8.43588C66.248 8.50788 66.36 8.55188 66.528 8.56788L66.852 8.60388C66.94 8.61988 66.984 8.66388 66.984 8.73588C66.984 8.83188 66.924 8.87988 66.804 8.87988H64.776ZM72.2247 8.98788C71.8727 8.98788 71.5567 8.86788 71.2767 8.62788C71.0047 8.37988 70.7927 8.03988 70.6407 7.60788C70.4887 7.16788 70.4127 6.65988 70.4127 6.08388C70.4127 5.41188 70.5167 4.82388 70.7247 4.31988C70.9327 3.80788 71.2207 3.40788 71.5887 3.11988C71.9567 2.83188 72.3727 2.68788 72.8367 2.68788C72.9487 2.68788 73.0607 2.69988 73.1727 2.72388C73.2847 2.73988 73.3927 2.77188 73.4967 2.81988C73.6247 2.88388 73.6887 2.85588 73.6887 2.73588V1.19988C73.6887 1.05588 73.6647 0.955882 73.6167 0.899883C73.5767 0.843882 73.5007 0.811882 73.3887 0.803882L73.0767 0.767882C72.9887 0.751882 72.9447 0.703882 72.9447 0.623883C72.9447 0.543883 72.9887 0.495883 73.0767 0.479882C73.3327 0.431882 73.5367 0.375882 73.6887 0.311882C73.8487 0.247882 73.9807 0.183882 74.0847 0.119883C74.2127 0.0398827 74.3087 -0.000117302 74.3727 -0.000117302C74.4607 -0.000117302 74.5047 0.0638826 74.5047 0.191882V7.73988C74.5047 8.07588 74.5887 8.24388 74.7567 8.24388C74.8607 8.24388 74.9567 8.17588 75.0447 8.03988C75.1327 7.89588 75.1767 7.65588 75.1767 7.31988C75.1767 7.19188 75.2287 7.12788 75.3327 7.12788C75.4287 7.12788 75.4767 7.19588 75.4767 7.33188C75.4767 7.91588 75.3767 8.33988 75.1767 8.60388C74.9767 8.85988 74.7487 8.98788 74.4927 8.98788C74.2607 8.98788 74.0847 8.91188 73.9647 8.75988C73.8447 8.59988 73.7647 8.41188 73.7247 8.19588C73.7167 8.13188 73.6887 8.09988 73.6407 8.09988C73.5927 8.09188 73.5487 8.11988 73.5087 8.18388C73.2847 8.49588 73.0807 8.70788 72.8967 8.81988C72.7127 8.93188 72.4887 8.98788 72.2247 8.98788ZM72.4887 8.43588C72.6967 8.43588 72.8887 8.36788 73.0647 8.23188C73.2487 8.08788 73.3967 7.89588 73.5087 7.65588C73.6287 7.41588 73.6887 7.14788 73.6887 6.85188V4.15188C73.6887 3.79188 73.6047 3.50788 73.4367 3.29988C73.2767 3.09188 73.0647 2.98788 72.8007 2.98788C72.3527 2.98788 71.9887 3.25188 71.7087 3.77988C71.4367 4.29988 71.3007 5.01188 71.3007 5.91588C71.3007 6.73988 71.4047 7.36788 71.6127 7.79988C71.8287 8.22388 72.1207 8.43588 72.4887 8.43588ZM78.0091 8.98788C77.6811 8.98788 77.3651 8.88388 77.0611 8.67588C76.8851 8.55588 76.7251 8.58788 76.5811 8.77188C76.5011 8.85988 76.4411 8.91588 76.4011 8.93988C76.3611 8.97188 76.3211 8.98788 76.2811 8.98788C76.1931 8.98788 76.1611 8.93188 76.1851 8.81988C76.2171 8.63588 76.2411 8.39988 76.2571 8.11188C76.2731 7.82388 76.2811 7.43988 76.2811 6.95988V1.19988C76.2811 1.05588 76.2571 0.959882 76.2091 0.911882C76.1691 0.855883 76.0931 0.819883 75.9811 0.803882L75.7291 0.767882C75.6411 0.751882 75.5971 0.703882 75.5971 0.623883C75.5971 0.543883 75.6411 0.495883 75.7291 0.479882C75.9531 0.431882 76.1411 0.375882 76.2931 0.311882C76.4451 0.247882 76.5731 0.183882 76.6771 0.119883C76.8051 0.0398827 76.9011 -0.000117302 76.9651 -0.000117302C77.0531 -0.000117302 77.0971 0.0638826 77.0971 0.191882V3.15588C77.0971 3.21988 77.1211 3.26388 77.1691 3.28788C77.2251 3.30388 77.2851 3.27988 77.3491 3.21588C77.6931 2.86388 78.0691 2.68788 78.4771 2.68788C78.8451 2.68788 79.1691 2.81188 79.4491 3.05988C79.7371 3.29988 79.9611 3.63588 80.1211 4.06788C80.2891 4.49988 80.3731 5.00788 80.3731 5.59188C80.3731 6.25588 80.2691 6.84388 80.0611 7.35588C79.8531 7.86788 79.5691 8.26788 79.2091 8.55588C78.8571 8.84388 78.4571 8.98788 78.0091 8.98788ZM77.9851 8.68788C78.4331 8.68788 78.7931 8.42388 79.0651 7.89588C79.3451 7.36788 79.4851 6.65588 79.4851 5.75988C79.4851 4.93588 79.3651 4.30788 79.1251 3.87588C78.8851 3.44388 78.5451 3.22788 78.1051 3.22788C77.8331 3.22788 77.5971 3.33988 77.3971 3.56388C77.1971 3.78788 77.0971 4.09988 77.0971 4.49988V7.52388C77.0971 7.88388 77.1771 8.16788 77.3371 8.37588C77.5051 8.58388 77.7211 8.68788 77.9851 8.68788ZM83.2934 8.98788C82.8854 8.98788 82.5174 8.85188 82.1894 8.57988C81.8694 8.29988 81.6134 7.91988 81.4214 7.43988C81.2294 6.95988 81.1334 6.42388 81.1334 5.83188C81.1334 5.23988 81.2294 4.70788 81.4214 4.23588C81.6134 3.76388 81.8734 3.38788 82.2014 3.10788C82.5294 2.82788 82.8934 2.68788 83.2934 2.68788C83.7014 2.68788 84.0654 2.82788 84.3854 3.10788C84.7134 3.38788 84.9734 3.76388 85.1654 4.23588C85.3574 4.70788 85.4534 5.23988 85.4534 5.83188C85.4534 6.42388 85.3574 6.95988 85.1654 7.43988C84.9814 7.91988 84.7254 8.29988 84.3974 8.57988C84.0694 8.85188 83.7014 8.98788 83.2934 8.98788ZM83.2934 8.68788C84.1254 8.68788 84.5414 7.73588 84.5414 5.83188C84.5414 3.93588 84.1254 2.98788 83.2934 2.98788C82.4614 2.98788 82.0454 3.93588 82.0454 5.83188C82.0454 7.73588 82.4614 8.68788 83.2934 8.68788ZM88.1919 8.98788C87.7839 8.98788 87.4159 8.85188 87.0879 8.57988C86.7679 8.29988 86.5119 7.91988 86.3199 7.43988C86.1279 6.95988 86.0319 6.42388 86.0319 5.83188C86.0319 5.23988 86.1279 4.70788 86.3199 4.23588C86.5119 3.76388 86.7719 3.38788 87.0999 3.10788C87.4279 2.82788 87.7919 2.68788 88.1919 2.68788C88.5999 2.68788 88.9639 2.82788 89.2839 3.10788C89.6119 3.38788 89.8719 3.76388 90.0639 4.23588C90.2559 4.70788 90.3519 5.23988 90.3519 5.83188C90.3519 6.42388 90.2559 6.95988 90.0639 7.43988C89.8799 7.91988 89.6239 8.29988 89.2959 8.57988C88.9679 8.85188 88.5999 8.98788 88.1919 8.98788ZM88.1919 8.68788C89.0239 8.68788 89.4399 7.73588 89.4399 5.83188C89.4399 3.93588 89.0239 2.98788 88.1919 2.98788C87.3599 2.98788 86.9439 3.93588 86.9439 5.83188C86.9439 7.73588 87.3599 8.68788 88.1919 8.68788ZM90.9783 8.87988C90.8823 8.87988 90.8343 8.83588 90.8343 8.74788C90.8343 8.66788 90.8783 8.61988 90.9663 8.60388L91.1343 8.57988C91.3023 8.55588 91.4103 8.50788 91.4583 8.43588C91.5143 8.36388 91.5423 8.24388 91.5423 8.07588V1.19988C91.5423 1.05588 91.5183 0.959882 91.4703 0.911882C91.4303 0.855883 91.3543 0.819883 91.2423 0.803882L90.9903 0.767882C90.9023 0.751882 90.8583 0.703882 90.8583 0.623883C90.8583 0.543883 90.9023 0.495883 90.9903 0.479882C91.2143 0.431882 91.4023 0.375882 91.5543 0.311882C91.7063 0.247882 91.8343 0.183882 91.9383 0.119883C92.0663 0.0398827 92.1623 -0.000117302 92.2263 -0.000117302C92.3143 -0.000117302 92.3583 0.0638826 92.3583 0.191882V5.21988C92.3583 5.29988 92.3903 5.35188 92.4543 5.37588C92.5263 5.39188 92.5943 5.36388 92.6583 5.29188L94.0623 3.77988C94.2303 3.59588 94.2983 3.44388 94.2663 3.32388C94.2423 3.19588 94.1503 3.11588 93.9903 3.08388L93.7143 3.03588C93.6103 3.01188 93.5583 2.95988 93.5583 2.87988C93.5583 2.79988 93.6143 2.75988 93.7263 2.75988H95.7903C95.9023 2.75988 95.9583 2.80388 95.9583 2.89188C95.9583 2.97988 95.9063 3.02788 95.8023 3.03588L95.6943 3.04788C95.5103 3.06388 95.3263 3.13588 95.1423 3.26388C94.9583 3.38388 94.7383 3.57588 94.4823 3.83988L93.7383 4.63188C93.5703 4.81588 93.5303 4.99588 93.6183 5.17188L95.1303 8.07588C95.2183 8.23588 95.3143 8.35188 95.4183 8.42388C95.5223 8.49588 95.6503 8.54788 95.8023 8.57988L95.9223 8.60388C96.0183 8.62788 96.0663 8.67588 96.0663 8.74788C96.0663 8.83588 96.0103 8.87988 95.8983 8.87988H93.8103C93.6983 8.87988 93.6423 8.83588 93.6423 8.74788C93.6423 8.66788 93.6943 8.61988 93.7983 8.60388L94.0023 8.57988C94.3063 8.53988 94.3703 8.34388 94.1943 7.99188L93.0543 5.77188C93.0143 5.69188 92.9543 5.64788 92.8743 5.63988C92.8023 5.63188 92.7343 5.65988 92.6703 5.72388L92.5383 5.85588C92.4663 5.92788 92.4183 5.99988 92.3943 6.07188C92.3703 6.14388 92.3583 6.22388 92.3583 6.31188V8.07588C92.3583 8.24388 92.3823 8.36388 92.4303 8.43588C92.4863 8.50788 92.5983 8.55188 92.7663 8.56788L93.0903 8.60388C93.1783 8.61988 93.2223 8.66788 93.2223 8.74788C93.2223 8.83588 93.1743 8.87988 93.0783 8.87988H90.9783Z" fill="black"/>
</svg>
